HIERARCHY
ROOT Hips
{
	OFFSET 0.000000 97.167313 0.000000
	CHANNELS 6 Xposition Yposition Zposition Xrotation Yrotation Zrotation
	JOINT Spine
	{
		OFFSET 0.000000 13.784798 0.064400
		CHANNELS 3 Xrotation Yrotation Zrotation
		JOINT Spine1
		{
			OFFSET 0.000000 12.037903 0.404700
			CHANNELS 3 Xrotation Yrotation Zrotation
			JOINT Spine2
			{
				OFFSET 0.000000 17.795601 0.420200
				CHANNELS 3 Xrotation Yrotation Zrotation
				JOINT Neck
				{
					OFFSET 0.000000 39.131302 11.954600
					CHANNELS 3 Xrotation Yrotation Zrotation
					JOINT Head
					{
						OFFSET 0.000000 14.456192 15.627699
						CHANNELS 3 Xrotation Yrotation Zrotation
						JOINT HeadTop_End
						{
							OFFSET 0.000000 15.703506 7.603401
							CHANNELS 3 Xrotation Yrotation Zrotation
							End Site
							{
								OFFSET 0.000000 17.447403 0.000000
							}
						}
					}
				}
				JOINT LeftShoulder
				{
					OFFSET 17.399500 24.608795 1.168800
					CHANNELS 3 Xrotation Yrotation Zrotation
					JOINT LeftArm
					{
						OFFSET 18.980635 5.765305 1.818600
						CHANNELS 3 Xrotation Yrotation Zrotation
						JOINT LeftForeArm
						{
							OFFSET 49.290169 0.000000 0.000000
							CHANNELS 3 Xrotation Yrotation Zrotation
							JOINT LeftHand
							{
								OFFSET 31.562012 0.000000 0.000000
								CHANNELS 3 Xrotation Yrotation Zrotation
								JOINT LeftHandThumb1
								{
									OFFSET 6.133995 -4.388519 7.076070
									CHANNELS 3 Xrotation Yrotation Zrotation
									JOINT LeftHandThumb2
									{
										OFFSET 6.037666 -3.485840 3.485847
										CHANNELS 3 Xrotation Yrotation Zrotation
										JOINT LeftHandThumb3
										{
											OFFSET 6.496506 -3.750763 3.750761
											CHANNELS 3 Xrotation Yrotation Zrotation
											JOINT LeftHandThumb4
											{
												OFFSET 5.616882 -3.242905 3.242910
												CHANNELS 3 Xrotation Yrotation Zrotation
												End Site
												{
													OFFSET -1.254608 7.132141 0.375429
												}
											}
										}
									}
								}
								JOINT LeftHandPinky1
								{
									OFFSET 18.920792 -0.453171 -11.426712
									CHANNELS 3 Xrotation Yrotation Zrotation
									JOINT LeftHandPinky2
									{
										OFFSET 4.919586 0.000000 0.000000
										CHANNELS 3 Xrotation Yrotation Zrotation
										JOINT LeftHandPinky3
										{
											OFFSET 5.233047 0.000000 0.000000
											CHANNELS 3 Xrotation Yrotation Zrotation
											JOINT LeftHandPinky4
											{
												OFFSET 5.571716 0.000000 0.000000
												CHANNELS 3 Xrotation Yrotation Zrotation
												End Site
												{
													OFFSET -3.459808 4.342407 -0.466164
												}
											}
										}
									}
								}
								JOINT LeftHandRing1
								{
									OFFSET 22.726120 -0.094986 -6.500475
									CHANNELS 3 Xrotation Yrotation Zrotation
									JOINT LeftHandRing2
									{
										OFFSET 6.408615 0.000000 0.000000
										CHANNELS 3 Xrotation Yrotation Zrotation
										JOINT LeftHandRing3
										{
											OFFSET 6.150223 0.000000 0.000000
											CHANNELS 3 Xrotation Yrotation Zrotation
											JOINT LeftHandRing4
											{
												OFFSET 6.145386 0.000000 0.000000
												CHANNELS 3 Xrotation Yrotation Zrotation
												End Site
												{
													OFFSET -3.671402 4.923981 -0.202372
												}
											}
										}
									}
								}
								JOINT LeftHandMiddle1
								{
									OFFSET 23.373947 0.000000 0.000001
									CHANNELS 3 Xrotation Yrotation Zrotation
									JOINT LeftHandMiddle2
									{
										OFFSET 6.996567 0.000000 0.000000
										CHANNELS 3 Xrotation Yrotation Zrotation
										JOINT LeftHandMiddle3
										{
											OFFSET 7.015945 0.000000 0.000000
											CHANNELS 3 Xrotation Yrotation Zrotation
											JOINT LeftHandMiddle4
											{
												OFFSET 7.721573 0.000000 0.000000
												CHANNELS 3 Xrotation Yrotation Zrotation
												End Site
												{
													OFFSET -4.651108 6.158463 0.251582
												}
											}
										}
									}
								}
								JOINT LeftHandIndex1
								{
									OFFSET 21.310577 -0.490082 6.209344
									CHANNELS 3 Xrotation Yrotation Zrotation
									JOINT LeftHandIndex2
									{
										OFFSET 7.536453 0.000000 0.000000
										CHANNELS 3 Xrotation Yrotation Zrotation
										JOINT LeftHandIndex3
										{
											OFFSET 7.512344 0.000000 0.000000
											CHANNELS 3 Xrotation Yrotation Zrotation
											JOINT LeftHandIndex4
											{
												OFFSET 10.212402 0.000000 0.000001
												CHANNELS 3 Xrotation Yrotation Zrotation
												End Site
												{
													OFFSET -5.180801 8.690506 1.388433
												}
											}
										}
									}
								}
							}
						}
					}
				}
				JOINT RightShoulder
				{
					OFFSET -17.399500 24.608795 1.168800
					CHANNELS 3 Xrotation Yrotation Zrotation
					JOINT RightArm
					{
						OFFSET -18.980635 5.765305 1.818600
						CHANNELS 3 Xrotation Yrotation Zrotation
						JOINT RightForeArm
						{
							OFFSET -49.290169 0.000000 0.000000
							CHANNELS 3 Xrotation Yrotation Zrotation
							JOINT RightHand
							{
								OFFSET -31.562012 0.000000 0.000000
								CHANNELS 3 Xrotation Yrotation Zrotation
								JOINT RightHandThumb1
								{
									OFFSET -6.133995 -4.388519 7.076070
									CHANNELS 3 Xrotation Yrotation Zrotation
									JOINT RightHandThumb2
									{
										OFFSET -6.037666 -3.485840 3.485847
										CHANNELS 3 Xrotation Yrotation Zrotation
										JOINT RightHandThumb3
										{
											OFFSET -6.496506 -3.750763 3.750761
											CHANNELS 3 Xrotation Yrotation Zrotation
											JOINT RightHandThumb4
											{
												OFFSET -5.616882 -3.242905 3.242910
												CHANNELS 3 Xrotation Yrotation Zrotation
												End Site
												{
													OFFSET 1.254608 7.132141 0.375429
												}
											}
										}
									}
								}
								JOINT RightHandIndex1
								{
									OFFSET -21.310577 -0.490082 6.209344
									CHANNELS 3 Xrotation Yrotation Zrotation
									JOINT RightHandIndex2
									{
										OFFSET -7.536453 0.000000 0.000000
										CHANNELS 3 Xrotation Yrotation Zrotation
										JOINT RightHandIndex3
										{
											OFFSET -7.512344 0.000000 0.000000
											CHANNELS 3 Xrotation Yrotation Zrotation
											JOINT RightHandIndex4
											{
												OFFSET -10.212402 0.000000 0.000001
												CHANNELS 3 Xrotation Yrotation Zrotation
												End Site
												{
													OFFSET 5.180801 8.690506 1.388433
												}
											}
										}
									}
								}
								JOINT RightHandMiddle1
								{
									OFFSET -23.373947 0.000000 0.000001
									CHANNELS 3 Xrotation Yrotation Zrotation
									JOINT RightHandMiddle2
									{
										OFFSET -6.996567 0.000000 0.000000
										CHANNELS 3 Xrotation Yrotation Zrotation
										JOINT RightHandMiddle3
										{
											OFFSET -7.015945 0.000000 0.000000
											CHANNELS 3 Xrotation Yrotation Zrotation
											JOINT RightHandMiddle4
											{
												OFFSET -7.721573 0.000000 0.000000
												CHANNELS 3 Xrotation Yrotation Zrotation
												End Site
												{
													OFFSET 4.651108 6.158463 0.251582
												}
											}
										}
									}
								}
								JOINT RightHandRing1
								{
									OFFSET -22.726120 -0.094986 -6.500475
									CHANNELS 3 Xrotation Yrotation Zrotation
									JOINT RightHandRing2
									{
										OFFSET -6.408615 0.000000 0.000000
										CHANNELS 3 Xrotation Yrotation Zrotation
										JOINT RightHandRing3
										{
											OFFSET -6.150223 0.000000 0.000000
											CHANNELS 3 Xrotation Yrotation Zrotation
											JOINT RightHandRing4
											{
												OFFSET -6.145386 0.000000 0.000000
												CHANNELS 3 Xrotation Yrotation Zrotation
												End Site
												{
													OFFSET 3.671402 4.923981 -0.202372
												}
											}
										}
									}
								}
								JOINT RightHandPinky1
								{
									OFFSET -18.920792 -0.453171 -11.426712
									CHANNELS 3 Xrotation Yrotation Zrotation
									JOINT RightHandPinky2
									{
										OFFSET -4.919586 0.000000 0.000000
										CHANNELS 3 Xrotation Yrotation Zrotation
										JOINT RightHandPinky3
										{
											OFFSET -5.233047 0.000000 0.000000
											CHANNELS 3 Xrotation Yrotation Zrotation
											JOINT RightHandPinky4
											{
												OFFSET -5.571716 0.000000 0.000000
												CHANNELS 3 Xrotation Yrotation Zrotation
												End Site
												{
													OFFSET 3.459808 4.342407 -0.466164
												}
											}
										}
									}
								}
							}
						}
					}
				}
			}
		}
	}
	JOINT LeftUpLeg
	{
		OFFSET 19.899099 -7.885101 -3.429500
		CHANNELS 3 Xrotation Yrotation Zrotation
		JOINT LeftLeg
		{
			OFFSET 1.745560 -36.997807 10.304700
			CHANNELS 3 Xrotation Yrotation Zrotation
			JOINT LeftFoot
			{
				OFFSET -1.745558 -29.803308 -13.615400
				CHANNELS 3 Xrotation Yrotation Zrotation
				JOINT LeftToeBase
				{
					OFFSET 1.181900 -18.539904 15.226099
					CHANNELS 3 Xrotation Yrotation Zrotation
					JOINT LeftToe_End
					{
						OFFSET -0.863701 1.402801 16.534700
						CHANNELS 3 Xrotation Yrotation Zrotation
						End Site
						{
							OFFSET 0.000000 16.616566 0.000000
						}
					}
				}
			}
		}
	}
	JOINT RightUpLeg
	{
		OFFSET -19.899099 -7.885101 -3.429500
		CHANNELS 3 Xrotation Yrotation Zrotation
		JOINT RightLeg
		{
			OFFSET -1.745560 -36.997807 10.304700
			CHANNELS 3 Xrotation Yrotation Zrotation
			JOINT RightFoot
			{
				OFFSET 1.745558 -29.803308 -13.615400
				CHANNELS 3 Xrotation Yrotation Zrotation
				JOINT RightToeBase
				{
					OFFSET -1.181900 -18.539904 15.226099
					CHANNELS 3 Xrotation Yrotation Zrotation
					JOINT RightToe_End
					{
						OFFSET 0.863701 1.402801 16.534700
						CHANNELS 3 Xrotation Yrotation Zrotation
						End Site
						{
							OFFSET 0.000000 16.616566 0.000000
						}
					}
				}
			}
		}
	}
}
MOTION
Frames: 5
Frame Time: 0.033333
-0.003327 93.014824 3.226851 3.816331 -3.714016 -0.354612 0.168725 0.332842 0.184917 0.511368 0.555630 -0.149995 0.508120 0.557001 -0.156049 -12.568407 -1.447528 2.637433 10.197547 3.163034 -2.584844 -0.000000 -0.000000 0.000000 1.604992 -11.385831 -9.553345 4.329746 -15.662805 -64.423055 0.000001 -12.874965 -0.000010 1.693026 -1.937935 -8.457175 0.699763 -6.020124 19.223917 19.074686 26.512416 -1.026359 3.271090 -0.981151 3.963644 0.000004 -0.000004 -0.000004 3.603271 12.761689 -45.581319 0.673745 2.729582 -27.725795 0.090006 1.024029 -10.045315 0.000001 -0.000001 -0.000002 3.090054 8.505090 -34.940369 1.098176 3.416393 -35.630252 0.533266 2.443991 -24.613775 0.000001 -0.000002 0.000007 2.486444 8.732140 -25.419674 1.496299 3.911577 -41.853972 0.476265 2.315671 -23.241530 0.000003 0.000000 0.000007 0.460235 4.491404 -23.662321 0.883092 3.094852 -31.844220 0.339536 1.967237 -19.583701 -0.000001 -0.000000 0.000001 2.087503 14.855923 10.815230 -4.515517 3.403576 66.314594 0.000005 7.533707 -0.000004 10.827184 0.054052 8.057259 -13.495574 -11.552045 -5.371135 13.666581 -20.582664 -6.820330 3.162470 -4.141720 -22.215031 -0.000001 0.000001 0.000001 0.246055 -3.262773 18.902298 0.589430 -2.269666 29.112629 0.172148 -1.255811 15.610688 -0.000000 -0.000003 -0.000001 -0.702539 -1.215797 21.259792 0.924234 -2.786653 36.691865 0.558011 -2.212361 28.309423 -0.000001 0.000002 -0.000004 -0.941535 -2.664827 38.529258 0.358961 -1.794601 22.620043 0.313728 -1.682021 21.129342 0.000000 -0.000001 -0.000003 -2.260385 -1.124632 39.408163 0.612393 -2.310394 29.687591 0.130090 -1.094186 13.559642 -0.000001 -0.000002 0.000004 -8.391425 12.061228 13.854199 11.404614 3.013364 1.229698 -5.642827 2.739999 -13.316644 0.143506 0.000496 -0.270641 0.000000 0.000002 0.000000 -11.631729 -7.863918 -11.527832 9.740151 2.736340 -2.253351 -1.867880 -1.890900 13.109280 -0.000103 0.000005 0.000002 -0.000000 -0.000000 -0.000000 
0.062441 92.665489 3.167465 4.400015 -3.559004 -0.287474 0.233610 0.334303 0.157528 0.659521 0.559307 -0.081032 0.646352 0.558206 -0.085431 -12.578178 -1.428391 2.601942 9.255166 3.107069 -2.700008 0.000000 -0.000000 -0.000000 1.657305 -11.450280 -9.418107 3.618105 -14.988502 -65.024521 0.000004 -12.245587 -0.000002 1.177344 -3.327302 -7.456290 -1.317343 -5.468366 18.109461 19.131910 26.518609 -1.169395 3.351026 0.262986 4.531266 0.000006 -0.000000 -0.000002 3.274627 12.457940 -46.243949 0.702697 2.783901 -28.327728 0.101616 1.087542 -10.675547 0.000000 0.000002 -0.000002 3.236309 8.466259 -37.380502 1.160781 3.501942 -36.667737 0.487102 2.340682 -23.507909 0.000001 0.000005 0.000004 2.407883 8.100502 -28.774614 1.489463 3.903948 -41.753623 0.455680 2.267149 -22.726374 -0.000001 0.000000 0.000006 0.462682 4.409489 -27.424617 0.920595 3.154365 -32.532539 0.313639 1.892916 -18.814753 -0.000002 0.000003 0.000002 2.134125 14.614913 10.772461 -4.838173 3.148489 66.466012 -0.000001 7.444706 0.000017 9.674228 0.509922 7.509167 -12.852769 -11.423996 -5.074025 13.744291 -20.432939 -6.627810 2.529925 -3.545122 -22.963036 0.000003 -0.000003 -0.000000 -0.036208 -2.219789 16.024278 0.625897 -2.333897 30.020662 0.167042 -1.237362 15.375649 0.000000 -0.000003 -0.000001 -0.908990 -0.435539 19.909797 0.914399 -2.773407 36.488937 0.541232 -2.180940 27.871524 -0.000001 0.000000 -0.000008 -1.000059 -2.352683 36.036826 0.354635 -1.784183 22.481499 0.305855 -1.661505 20.859406 0.000002 0.000002 -0.000001 -2.389289 -0.743360 38.034697 0.569991 -2.234421 28.617888 0.131649 -1.100661 13.641486 -0.000002 0.000001 0.000006 -9.518684 11.599405 13.884735 12.443686 3.052074 1.318581 -6.082642 2.840228 -13.606825 0.120139 0.000355 -0.226304 -0.000000 0.000001 -0.000000 -12.848739 -7.590037 -11.688454 11.098435 2.492929 -2.274980 -2.527342 -1.973940 12.916570 0.106040 -0.000274 0.199583 -0.000000 -0.000001 -0.000000 
0.207701 92.146118 3.083785 5.056938 -3.210139 -0.264057 0.322403 0.318584 0.139929 0.867550 0.537423 0.001928 0.860113 0.537940 -0.004624 -12.573731 -1.430815 2.662917 7.638676 3.005011 -2.862662 -0.000000 0.000000 -0.000000 1.767843 -11.491005 -9.196116 2.246931 -13.706276 -65.829131 -0.000003 -10.713250 -0.000005 1.081172 -5.296601 -6.421455 -5.493078 -4.283852 15.900612 19.013659 25.907541 -1.128440 3.567859 2.815741 5.710354 -0.000005 -0.000001 -0.000003 2.927827 12.022496 -46.426182 0.750822 2.871256 -29.302963 0.106629 1.113833 -10.936712 0.000001 0.000007 0.000002 3.564867 8.656312 -39.773875 1.148607 3.485562 -36.468047 0.419534 2.178876 -21.794176 0.000001 0.000002 0.000003 2.571245 7.927518 -33.051613 1.447202 3.856192 -41.129295 0.414551 2.166424 -21.663118 -0.000001 -0.000000 0.000001 1.077318 5.105438 -32.751088 0.980582 3.246341 -33.606819 0.277447 1.783195 -17.686129 -0.000001 0.000001 -0.000003 2.174777 14.467456 10.916295 -5.567107 2.429034 66.658903 0.000005 7.324441 -0.000004 8.691349 1.046564 6.635242 -11.490937 -11.105638 -4.460675 13.792130 -19.346021 -6.524265 1.274529 -1.987329 -24.702580 -0.000003 -0.000002 0.000001 -0.272753 -1.110492 12.722489 0.660184 -2.392188 30.851992 0.156373 -1.197900 14.873702 -0.000003 -0.000001 -0.000001 -0.944614 0.098275 17.859676 0.884346 -2.732370 35.863199 0.504271 -2.109618 26.884118 0.000002 0.000001 -0.000009 -0.813640 -2.277974 32.444860 0.345103 -1.760996 22.173436 0.295260 -1.633453 20.491119 -0.000001 -0.000001 -0.000000 -1.855387 -1.099604 35.732725 0.495430 -2.092101 26.642990 0.130126 -1.094338 13.561563 0.000000 0.000000 0.000004 -11.066204 10.866980 13.862648 14.110840 3.079489 1.626392 -6.807899 2.965443 -14.062253 0.048305 0.000060 -0.090893 0.000000 0.000001 -0.000000 -14.286840 -7.138401 -11.889870 13.007985 1.989128 -2.387891 -3.523646 -2.084635 12.766540 0.230334 -0.001283 0.434239 -0.000000 0.000000 0.000000 
0.384546 91.205429 2.908604 5.917859 -2.705157 -0.266340 0.488771 0.289090 0.119029 1.237267 0.497717 0.106459 1.247537 0.508518 0.098783 -12.768074 -1.438478 2.782524 5.188734 2.858133 -3.113733 0.000000 0.000000 0.000000 1.903824 -11.425532 -9.153812 0.149344 -11.456012 -66.357412 0.000000 -8.420638 0.000000 0.107563 -7.405856 -5.461231 -11.392344 -2.339881 12.811926 19.076688 25.632486 -1.426265 3.807314 6.204687 7.942158 -0.000001 0.000001 0.000001 2.111324 11.280874 -46.100184 0.810033 2.974182 -30.464266 0.108738 1.124650 -11.044407 -0.000003 0.000003 -0.000000 3.527750 8.443126 -41.836353 1.075209 3.384167 -35.242888 0.365846 2.039596 -20.335855 -0.000001 0.000001 0.000005 2.593878 7.630615 -37.451792 1.357959 3.751784 -39.784243 0.358136 2.018701 -20.118182 -0.000000 -0.000001 0.000009 1.748608 5.688619 -38.260090 1.055088 3.355587 -34.900849 0.206862 1.544535 -15.255368 -0.000002 0.000003 0.000001 2.197886 14.362054 11.366311 -7.062615 1.004777 66.808744 0.000005 7.103872 -0.000010 7.606983 1.978557 5.353127 -9.497010 -10.417261 -3.605682 13.836117 -17.309525 -6.545006 -0.470328 0.440037 -26.971533 0.000001 -0.000002 0.000001 -0.388802 -0.620775 11.354483 0.695154 -2.449741 31.680118 0.141221 -1.139344 14.130715 -0.000000 0.000000 0.000001 -0.836884 0.090822 16.377301 0.844790 -2.676855 35.024886 0.453966 -2.007378 25.483788 -0.000000 0.000000 -0.000008 -0.411174 -2.651696 28.936004 0.333705 -1.732780 21.799534 0.283080 -1.600475 20.059156 0.000000 -0.000001 -0.000002 -0.722503 -2.465624 32.936965 0.409650 -1.911676 24.187775 0.128125 -1.085984 13.456052 -0.000002 -0.000001 0.000000 -13.624906 9.877648 13.939314 17.255730 2.966105 1.902828 -8.220959 3.133617 -14.342432 -0.000047 -0.000001 -0.000002 -0.000000 0.000002 0.000000 -16.605401 -6.435556 -12.162423 16.442149 1.283908 -2.458740 -5.300679 -2.265347 12.276790 0.214507 -0.001130 0.406786 -0.000000 -0.000001 -0.000000 
0.559865 89.810524 2.612495 6.651891 -2.267547 -0.473450 0.772743 0.256714 0.109959 1.830977 0.459622 0.246938 1.841096 0.476949 0.243631 -13.294347 -1.439411 2.921836 1.874356 2.676646 -3.492624 -0.000000 0.000000 -0.000000 2.062596 -10.918055 -9.344763 -2.713218 -8.201983 -66.029966 0.000006 -6.031686 -0.000035 -3.757445 -9.012762 -4.534347 -18.077993 0.193638 9.353118 19.690103 26.601809 -2.562059 3.831535 9.740125 11.480987 0.000001 -0.000003 0.000002 0.418650 10.097550 -44.996234 0.862679 3.061789 -31.464206 0.112275 1.142652 -11.223463 0.000000 0.000001 -0.000000 2.638861 7.399346 -43.422928 0.971734 3.233016 -33.450425 0.341162 1.971763 -19.630553 -0.000001 -0.000001 0.000003 2.036399 6.806532 -41.157900 1.224042 3.585190 -37.691368 0.296150 1.840796 -18.277677 -0.000001 0.000000 0.000008 1.675508 5.563537 -42.464727 1.132863 3.464186 -36.208291 0.108218 1.121995 -11.017980 -0.000000 0.000001 0.000001 2.236850 13.913002 12.101202 -9.503765 -1.076422 66.531875 0.000001 6.692223 0.000017 5.826867 3.553670 3.830683 -7.138357 -9.224022 -2.673984 14.098759 -15.838150 -6.173768 -2.588182 3.303042 -28.839862 -0.000001 -0.000001 -0.000001 -0.403511 -1.187744 14.107558 0.741469 -2.523178 32.747608 0.124727 -1.071715 13.275932 -0.000000 -0.000001 -0.000001 -0.708077 -0.481213 16.987836 0.810054 -2.626648 34.274231 0.402668 -1.896080 23.977671 0.000003 -0.000003 -0.000007 0.002513 -3.319642 27.178774 0.325046 -1.710996 21.511575 0.271105 -1.567299 19.625884 -0.000001 -0.000002 -0.000003 0.527990 -4.432125 30.561794 0.340028 -1.748512 22.007841 0.128282 -1.086671 13.464761 0.000000 -0.000001 0.000004 -16.836602 8.715644 14.292935 21.962564 2.750947 2.277086 -10.425262 3.420438 -14.622658 -0.000004 0.000001 -0.000010 -0.000000 0.000001 -0.000000 -19.538094 -5.545007 -12.171207 21.365919 0.461705 -2.401637 -7.791387 -2.381781 10.959821 0.156306 -0.000620 0.300533 0.000000 -0.000000 -0.000000 
